# WaveFront *.obj file (generated by Autodesk ATF)

mtllib d0357dbb-b91d-4f53-86af-8aafb7559008.mtl

g Body2

v -19.988345 38.526193 0.000000
v -1.488345 38.611350 0.000000
v -1.488345 38.611350 300.000000
v -19.988345 38.526193 300.000000
v -1.488345 1.611350 0.000000
v -1.488345 1.611350 300.000000
v -19.988345 1.611350 0.000000
v -19.988345 1.611350 300.000000
v -38.492582 1.611350 0.000000
v -38.492582 1.611350 300.000000
v -38.492582 20.111350 0.000000
v -38.492582 20.111350 300.000000
v -38.488149 38.611350 0.000000
v -38.488149 38.611350 300.000000
v -40.000000 40.000000 0.000000
v -40.000000 0.000000 0.000000
v -40.000000 0.000000 300.000000
v -40.000000 40.000000 300.000000
v 0.000000 40.000000 0.000000
v 0.000000 40.000000 300.000000
v 0.000000 0.000000 0.000000
v 0.000000 0.000000 300.000000
vt -1.850020 0.000000 0.000000
vt 0.000000 0.000000 0.000000
vt -1.850020 30.000000 0.000000
vt 0.000000 30.000000 0.000000
vt -3.700000 0.000000 0.000000
vt 0.000000 0.000000 0.000000
vt -3.700000 30.000000 0.000000
vt -0.000000 30.000000 0.000000
vt -1.850000 0.000000 0.000000
vt -0.000000 0.000000 0.000000
vt -1.850000 30.000000 0.000000
vt -0.000000 30.000000 0.000000
vt -1.850424 0.000000 0.000000
vt -0.000000 0.000000 0.000000
vt -1.850424 30.000000 0.000000
vt -0.000000 30.000000 0.000000
vt -1.850000 0.000000 0.000000
vt -0.000000 0.000000 0.000000
vt -1.850000 30.000000 0.000000
vt -0.000000 30.000000 0.000000
vt -1.850000 0.000000 0.000000
vt -0.000000 0.000000 0.000000
vt -1.850000 30.000000 0.000000
vt -0.000000 30.000000 0.000000
vt -1.850000 0.000000 0.000000
vt -0.000000 0.000000 0.000000
vt -1.850000 30.000000 0.000000
vt -0.000000 30.000000 0.000000
vt -0.000000 0.000000 0.000000
vt 4.000000 0.000000 0.000000
vt -0.000000 30.000000 0.000000
vt 4.000000 30.000000 0.000000
vt -0.000000 0.000000 0.000000
vt 4.000000 0.000000 0.000000
vt -0.000000 30.000000 0.000000
vt 4.000000 30.000000 0.000000
vt 0.000000 0.000000 0.000000
vt 4.000000 0.000000 0.000000
vt 0.000000 30.000000 0.000000
vt 4.000000 30.000000 0.000000
vt 0.000000 0.000000 0.000000
vt 4.000000 0.000000 0.000000
vt 0.000000 30.000000 0.000000
vt 4.000000 30.000000 0.000000
vt 1.851166 1.861135 0.000000
vt 2.000000 2.000000 0.000000
vt 0.001166 1.852619 0.000000
vt -2.000000 2.000000 0.000000
vt -1.848815 1.861135 0.000000
vt -1.849258 0.011135 0.000000
vt -2.000000 -2.000000 0.000000
vt -1.849258 -1.838865 0.000000
vt 0.001166 -1.838865 0.000000
vt 2.000000 -2.000000 0.000000
vt 1.851166 -1.838865 0.000000
vt -1.851166 -1.838865 0.000000
vt -1.851166 1.861135 0.000000
vt -2.000000 2.000000 0.000000
vt -0.001166 1.852619 0.000000
vt 2.000000 2.000000 0.000000
vt 1.848815 1.861135 0.000000
vt 1.849258 0.011135 0.000000
vt 2.000000 -2.000000 0.000000
vt 1.849258 -1.838865 0.000000
vt -0.001166 -1.838865 0.000000
vt -2.000000 -2.000000 0.000000
vn 0.000460 -0.099999 0.000000
vn 0.000460 -0.099999 0.000000
vn 0.000460 -0.099999 0.000000
vn 0.000460 -0.099999 0.000000
vn -0.100000 -0.000000 0.000000
vn -0.100000 -0.000000 0.000000
vn -0.100000 -0.000000 0.000000
vn -0.100000 -0.000000 0.000000
vn 0.000000 0.100000 0.000000
vn 0.000000 0.100000 0.000000
vn 0.000000 0.100000 0.000000
vn 0.000000 0.100000 0.000000
vn -0.000000 0.100000 -0.000000
vn -0.000000 0.100000 -0.000000
vn -0.000000 0.100000 -0.000000
vn -0.000000 0.100000 -0.000000
vn 0.100000 0.000000 0.000000
vn 0.100000 0.000000 0.000000
vn 0.100000 0.000000 0.000000
vn 0.100000 0.000000 0.000000
vn 0.100000 -0.000024 0.000000
vn 0.100000 -0.000024 0.000000
vn 0.100000 -0.000024 0.000000
vn 0.100000 -0.000024 0.000000
vn -0.000460 -0.099999 0.000000
vn -0.000460 -0.099999 0.000000
vn -0.000460 -0.099999 0.000000
vn -0.000460 -0.099999 0.000000
vn -0.100000 0.000000 0.000000
vn -0.100000 0.000000 0.000000
vn -0.100000 0.000000 0.000000
vn -0.100000 0.000000 0.000000
vn 0.000000 0.100000 0.000000
vn 0.000000 0.100000 0.000000
vn 0.000000 0.100000 0.000000
vn 0.000000 0.100000 0.000000
vn 0.100000 0.000000 0.000000
vn 0.100000 0.000000 0.000000
vn 0.100000 0.000000 0.000000
vn 0.100000 0.000000 0.000000
vn 0.000000 -0.100000 0.000000
vn 0.000000 -0.100000 0.000000
vn 0.000000 -0.100000 0.000000
vn 0.000000 -0.100000 0.000000
vn 0.000000 0.000000 0.100000
vn 0.000000 0.000000 0.100000
vn 0.000000 0.000000 0.100000
vn 0.000000 0.000000 0.100000
vn 0.000000 0.000000 0.100000
vn 0.000000 0.000000 0.100000
vn 0.000000 0.000000 0.100000
vn 0.000000 0.000000 0.100000
vn 0.000000 0.000000 0.100000
vn 0.000000 0.000000 0.100000
vn 0.000000 0.000000 0.100000
vn -0.000000 0.000000 -0.100000
vn -0.000000 0.000000 -0.100000
vn -0.000000 0.000000 -0.100000
vn -0.000000 0.000000 -0.100000
vn -0.000000 0.000000 -0.100000
vn -0.000000 0.000000 -0.100000
vn -0.000000 0.000000 -0.100000
vn -0.000000 0.000000 -0.100000
vn -0.000000 0.000000 -0.100000
vn -0.000000 0.000000 -0.100000
vn -0.000000 0.000000 -0.100000
usemtl Steel_-_Satin
f 1/1/1 2/2/2 4/3/3
f 4/3/3 2/2/2 3/4/4
f 2/5/5 5/6/6 3/7/7
f 3/7/7 5/6/6 6/8/8
f 5/9/9 7/10/10 6/11/11
f 6/11/11 7/10/10 8/12/12
f 7/13/13 9/14/14 8/15/15
f 8/15/15 9/14/14 10/16/16
f 9/17/17 11/18/18 10/19/19
f 10/19/19 11/18/18 12/20/20
f 11/21/21 13/22/22 12/23/23
f 12/23/23 13/22/22 14/24/24
f 13/25/25 1/26/26 14/27/27
f 14/27/27 1/26/26 4/28/28
f 15/29/29 16/30/30 18/31/31
f 18/31/31 16/30/30 17/32/32
f 19/33/33 15/34/34 20/35/35
f 20/35/35 15/34/34 18/36/36
f 21/37/37 19/38/38 22/39/39
f 22/39/39 19/38/38 20/40/40
f 16/41/41 21/42/42 17/43/43
f 17/43/43 21/42/42 22/44/44
f 3/45/45 20/46/46 4/47/47
f 4/47/47 20/46/46 18/48/48
f 4/47/47 18/48/48 14/49/49
f 14/49/49 18/48/48 12/50/50
f 12/50/50 18/48/48 17/51/51
f 12/50/50 17/51/51 10/52/52
f 10/52/52 17/51/51 8/53/53
f 8/53/53 17/51/51 22/54/54
f 8/53/53 22/54/54 6/55/55
f 6/55/55 22/54/54 20/46/46
f 6/55/55 20/46/46 3/45/45
f 5/56/56 2/57/57 19/58/58
f 19/58/58 2/57/57 1/59/59
f 19/58/58 1/59/59 15/60/60
f 15/60/60 1/59/59 13/61/61
f 15/60/60 13/61/61 11/62/62
f 15/60/60 11/62/62 16/63/63
f 16/63/63 11/62/62 9/64/64
f 16/63/63 9/64/64 7/65/65
f 16/63/63 7/65/65 21/66/66
f 21/66/66 7/65/65 5/56/56
f 21/66/66 5/56/56 19/58/58
# 22 vertices
# 66 texture params
# 66 normals
# 44 facets

# 1 groups
